<?xml version="1.0" encoding="UTF-8" standalone="no"?>
<!-- Created with Inkscape (http://www.inkscape.org/) -->

<svg
   xmlns:dc="http://purl.org/dc/elements/1.1/"
   xmlns:cc="http://creativecommons.org/ns#"
   xmlns:rdf="http://www.w3.org/1999/02/22-rdf-syntax-ns#"
   xmlns:svg="http://www.w3.org/2000/svg"
   xmlns="http://www.w3.org/2000/svg"
   xmlns:sodipodi="http://sodipodi.sourceforge.net/DTD/sodipodi-0.dtd"
   xmlns:inkscape="http://www.inkscape.org/namespaces/inkscape"
   width="297mm"
   height="210mm"
   viewBox="0 0 1052.3622 744.09448"
   id="svg2"
   version="1.1"
   inkscape:version="0.91 r13725"
   sodipodi:docname="dessin3.svg">
  <defs
     id="defs4" />
  <sodipodi:namedview
     id="base"
     pagecolor="#ffffff"
     bordercolor="#666666"
     borderopacity="1.0"
     inkscape:pageopacity="0.0"
     inkscape:pageshadow="2"
     inkscape:zoom="2.8"
     inkscape:cx="865.22304"
     inkscape:cy="174.23407"
     inkscape:document-units="px"
     inkscape:current-layer="layer1"
     showgrid="false"
     inkscape:window-width="1535"
     inkscape:window-height="876"
     inkscape:window-x="65"
     inkscape:window-y="24"
     inkscape:window-maximized="1" />
  <metadata
     id="metadata7">
    <rdf:RDF>
      <cc:Work
         rdf:about="">
        <dc:format>image/svg+xml</dc:format>
        <dc:type
           rdf:resource="http://purl.org/dc/dcmitype/StillImage" />
        <dc:title />
      </cc:Work>
    </rdf:RDF>
  </metadata>
  <g
     inkscape:label="Calque 1"
     inkscape:groupmode="layer"
     id="layer1"
     transform="translate(0,-308.26772)">
    <path
       style="fill:#edc353;fill-opacity:1"
       id="path3372"
       d="m -117.79348,598.08568 c 35.648053,11.88443 72.019365,21.41149 108.2259073,31.4054 141.0514427,37.50638 276.7120827,91.8791 412.0585927,145.84342 28.60747,11.70244 131.5358,53.87847 161.26233,65.76256 50.86758,20.33588 92.61599,36.94173 144.33534,54.20826 55.58997,18.55874 64.26688,19.74209 118.90067,33.56818 39.27661,8.58599 79.24029,15.16608 119.57459,14.69521 13.20253,-0.15413 30.11768,-1.64076 43.26098,-4.99545 4.53612,-1.1578 8.80853,-3.1745 13.21277,-4.76175 -8.14366,4.43157 -15.74087,10.06369 -24.43103,13.2947 -2.26563,0.84236 3.56285,-3.52619 4.32613,-5.81968 2.47291,-7.43052 -1.62673,-15.10229 -5.19358,-21.15373 -9.64183,-16.3581 -18.6901,-24.72513 -31.71187,-39.24973 -47.83962,-48.19621 -103.14728,-87.97533 -158.23352,-127.33935 -13.31231,-9.70651 -21.70805,-15.31554 -33.82464,-25.93624 -3.9206,-3.43657 -7.80545,-6.94676 -11.28679,-10.82766 -5.01907,-5.59512 -11.67336,-14.15588 -11.49843,-22.45104 0.11843,-5.61598 2.79838,-10.88036 4.19757,-16.32054 4.71035,-7.14852 8.57376,-14.93363 14.13106,-21.44556 22.03069,-25.81508 50.0529,-47.30537 77.34369,-66.84811 20.47301,-14.66057 41.16546,-29.10559 62.82302,-41.95186 42.04701,-24.94034 133.67319,-71.43254 178.48969,-94.54482 64.8294,-33.23084 129.3253,-67.1005 194.065,-100.50444 l -16.9445,13.55704 0,0 c -15.2656,7.4063 -30.5808,14.71096 -45.7966,22.2189 -32.6992,16.13474 -105.7135,53.00191 -135.2469,67.87486 -40.6917,21.02832 -120.5937,61.24603 -161.13852,86.13138 -19.80303,12.15458 -38.75436,25.69206 -57.3466,39.62842 -24.40912,18.29659 -46.83285,36.99249 -65.62664,60.95851 -4.59566,5.86043 -7.73258,12.73052 -11.59887,19.09577 -1.25669,4.63322 -3.54833,9.10416 -3.77008,13.89966 -0.36398,7.87112 4.99425,15.75345 9.38528,21.51253 11.43509,14.99774 26.52103,26.787 40.89337,38.74078 52.71135,42.56314 106.57125,83.7447 157.73851,128.18671 12.97797,12.06572 26.19077,23.17649 37.12665,37.19404 5.1203,6.56322 11.0195,14.49431 9.3638,23.59401 -3.3293,18.29852 -29.94537,24.23455 -46.01606,31.55636 -4.04079,1.06006 -8.00232,2.48963 -12.12238,3.18018 -12.31455,2.06401 -27.48516,2.25421 -39.65296,1.49915 C 883.58148,959.18992 846.44652,950.4568 809.91088,940.58972 757.03521,924.59856 750.26313,923.39711 696.2417,903.28083 594.77031,865.49533 496.61892,819.52418 395.96353,779.7124 330.4962,754.21586 296.12345,740.08651 229.90638,717.22367 144.26323,687.65358 56.947875,662.8617 -31.895901,644.94081 -72.017412,637.06744 -112.15212,629.19169 -152.39108,621.94973 Z"
       inkscape:connector-curvature="0"
       sodipodi:nodetypes="cccsscsscsssccssscsssccccscssscssccsscsscscsccc" />
  </g>
</svg>
