<?xml version="1.0" encoding="UTF-8" standalone="no"?>
<!-- Created with Inkscape (http://www.inkscape.org/) -->

<svg
   xmlns:dc="http://purl.org/dc/elements/1.1/"
   xmlns:cc="http://creativecommons.org/ns#"
   xmlns:rdf="http://www.w3.org/1999/02/22-rdf-syntax-ns#"
   xmlns:svg="http://www.w3.org/2000/svg"
   xmlns="http://www.w3.org/2000/svg"
   xmlns:sodipodi="http://sodipodi.sourceforge.net/DTD/sodipodi-0.dtd"
   xmlns:inkscape="http://www.inkscape.org/namespaces/inkscape"
   width="297mm"
   height="210mm"
   viewBox="0 0 1052.3622 744.09448"
   id="svg2"
   version="1.1"
   inkscape:version="0.91 r13725"
   sodipodi:docname="dessin.svg">
  <defs
     id="defs4" />
  <sodipodi:namedview
     id="base"
     pagecolor="#ffffff"
     bordercolor="#666666"
     borderopacity="1.0"
     inkscape:pageopacity="0.0"
     inkscape:pageshadow="2"
     inkscape:zoom="2.7139576"
     inkscape:cx="895.44766"
     inkscape:cy="197.19752"
     inkscape:document-units="px"
     inkscape:current-layer="layer1"
     showgrid="false"
     inkscape:object-paths="true"
     inkscape:window-width="1535"
     inkscape:window-height="876"
     inkscape:window-x="65"
     inkscape:window-y="24"
     inkscape:window-maximized="1"
     inkscape:snap-page="false" />
  <metadata
     id="metadata7">
    <rdf:RDF>
      <cc:Work
         rdf:about="">
        <dc:format>image/svg+xml</dc:format>
        <dc:type
           rdf:resource="http://purl.org/dc/dcmitype/StillImage" />
        <dc:title />
      </cc:Work>
    </rdf:RDF>
  </metadata>
  <g
     inkscape:label="Calque 1"
     inkscape:groupmode="layer"
     id="layer1"
     transform="translate(0,-308.26772)">
    <path
       style="fill:#ffdd55"
       id="path3412"
       d="m -190.75337,802.25832 c 20.52406,-3.96292 41.59026,-4.97524 62.41733,-6.26434 72.016194,-3.9852 144.140601,1.52326 215.628087,10.16021 20.232753,2.44448 40.393433,5.45244 60.590143,8.17866 112.69481,16.31638 224.25631,39.2519 336.254,59.58463 22.67511,4.11658 45.39526,7.98113 68.09289,11.9717 57.59325,9.29507 115.3948,17.75084 173.51515,23.04169 15.5035,1.41133 31.02671,2.7189 46.58016,3.38261 37.45597,1.59834 44.56729,0.26845 81.11847,-1.92292 11.90238,-1.80319 23.89736,-3.07558 35.70712,-5.40957 29.7915,-5.88776 60.63279,-12.58549 86.19257,-28.97148 15.97428,-10.24087 7.14371,-3.46573 15.97428,-10.24087 10.48277,-9.41386 22.22627,-20.41752 21.11467,-36.06023 -1.5646,-22.01836 -21.07722,-37.3047 -35.29367,-51.33989 -9.69422,-6.9668 -18.97783,-14.54376 -29.08264,-20.90039 -52.15674,-32.81026 -111.36613,-52.8728 -170.56093,-68.62074 -14.10633,-3.75278 -28.37897,-6.84994 -42.56845,-10.27492 -40.52312,-8.96196 -81.29612,-16.78314 -122.20844,-23.74701 -33.11893,-5.63732 -4.52298,-0.42156 -32.44833,-5.62046 -5.37909,-1.49948 -23.57661,-3.71978 -26.23167,-10.31495 -1.87475,-4.65689 0.92382,-7.3724 2.9812,-11.29521 13.5017,-14.50103 31.01395,-24.51647 48.28843,-33.8204 17.91302,-9.64784 35.81506,-19.35954 54.22001,-28.03217 29.13632,-13.72938 61.97068,-24.41244 92.14481,-35.10205 88.32633,-29.82508 180.28757,-48.62494 273.17208,-56.58661 16.8923,-1.44794 33.8502,-1.9885 50.7754,-2.98275 15.8962,-0.0585 31.7981,-0.6058 47.6885,-0.17548 26.9609,0.73012 56.3416,3.29717 83.0531,7.59922 21.5594,3.47226 42.6626,8.21963 63.2079,15.69113 8.1169,2.95178 15.8294,6.91491 23.7441,10.37236 l -21.0782,13.99317 0,0 c -7.629,-3.53156 -15.0475,-7.55899 -22.8871,-10.59468 -43.8661,-16.9861 -96.3857,-23.10045 -143.0483,-24.70166 -15.6969,-0.53863 -31.4121,-0.066 -47.1182,-0.099 -16.7436,0.90421 -33.5187,1.3447 -50.2308,2.71263 -92.88703,7.60307 -184.7544,26.74487 -272.9005,56.96799 l -79.74323,30.2411 -27.7868,12.50464 c -16.5809,7.46175 -31.83733,17.60005 -44.94427,30.26513 -0.37099,0.51399 -4.82924,5.53474 -4.27645,7.72815 0.577,2.2895 5.4563,4.29548 6.77027,4.83463 5.35533,2.19739 11.28811,3.55944 16.82158,5.05279 49.878,11.3698 100.35846,20.08946 149.95606,32.7447 14.00768,3.58462 28.08426,6.91006 42.02306,10.75386 59.64305,16.44735 119.19186,36.46127 172.7464,68.02902 10.5567,6.22265 20.39707,13.58751 30.59561,20.38127 13.72377,12.42373 25.34357,20.38449 34.15267,36.67847 8.095,14.97328 6.088,28.89114 -4.2363,41.92613 -3.5826,4.52318 -8.204,8.11602 -12.3061,12.17403 -21.62527,13.45894 -37.93822,24.92241 -60.06437,35.34762 -37.98662,17.89821 -78.87578,28.33855 -120.62729,32.34812 -36.35067,1.73081 -42.9029,2.96803 -80.08655,0.81137 -15.28979,-0.88681 -30.5391,-2.42007 -45.7677,-4.04912 C 652.03788,914.4855 595.22042,905.00618 538.46856,895.52114 403.44127,871.19728 268.82732,844.22738 132.95745,824.88475 112.53806,822.3399 92.155769,819.47731 71.699287,817.2502 -1.650276,809.26459 -75.709604,805.08004 -149.35406,811.51995 c -21.71313,2.08135 -43.97755,3.37051 -65.09424,9.14688 z"
       inkscape:connector-curvature="0"
       sodipodi:nodetypes="ccscscsscsscscsscscscsscscssscccsscsccscssccsscsscscssccsccc" />
  </g>
</svg>
