<?xml version="1.0" encoding="UTF-8" standalone="no"?>
<!-- Created with Inkscape (http://www.inkscape.org/) -->

<svg
   xmlns:dc="http://purl.org/dc/elements/1.1/"
   xmlns:cc="http://creativecommons.org/ns#"
   xmlns:rdf="http://www.w3.org/1999/02/22-rdf-syntax-ns#"
   xmlns:svg="http://www.w3.org/2000/svg"
   xmlns="http://www.w3.org/2000/svg"
   xmlns:sodipodi="http://sodipodi.sourceforge.net/DTD/sodipodi-0.dtd"
   xmlns:inkscape="http://www.inkscape.org/namespaces/inkscape"
   width="297mm"
   height="210mm"
   viewBox="0 0 1052.3622 744.09448"
   id="svg2"
   version="1.1"
   inkscape:version="0.91 r13725"
   sodipodi:docname="dessin.svg">
  <defs
     id="defs4" />
  <sodipodi:namedview
     id="base"
     pagecolor="#ffffff"
     bordercolor="#666666"
     borderopacity="1.0"
     inkscape:pageopacity="0.0"
     inkscape:pageshadow="2"
     inkscape:zoom="0.7"
     inkscape:cx="1102.8203"
     inkscape:cy="552.49613"
     inkscape:document-units="px"
     inkscape:current-layer="layer1"
     showgrid="false"
     inkscape:object-paths="true"
     inkscape:window-width="1366"
     inkscape:window-height="705"
     inkscape:window-x="-8"
     inkscape:window-y="-8"
     inkscape:window-maximized="1" />
  <metadata
     id="metadata7">
    <rdf:RDF>
      <cc:Work
         rdf:about="">
        <dc:format>image/svg+xml</dc:format>
        <dc:type
           rdf:resource="http://purl.org/dc/dcmitype/StillImage" />
        <dc:title />
      </cc:Work>
    </rdf:RDF>
  </metadata>
  <g
     inkscape:label="Calque 1"
     inkscape:groupmode="layer"
     id="layer1"
     transform="translate(0,-308.26772)">
    <path
       style="fill:#ffdd55"
       id="path3412"
       d="m -190.75337,802.25832 c 20.52406,-3.96292 41.59026,-4.97524 62.41733,-6.26434 72.016194,-3.9852 144.140601,1.52326 215.628087,10.16021 20.232753,2.44448 40.393433,5.45244 60.590143,8.17866 112.69481,16.31638 224.25631,39.2519 336.254,59.58463 22.67511,4.11658 45.39526,7.98113 68.09289,11.9717 57.59325,9.29507 115.3948,17.75084 173.51515,23.04169 15.5035,1.41133 31.02671,2.7189 46.58016,3.38261 37.45597,1.59834 44.56729,0.26845 81.11847,-1.92292 11.90238,-1.80319 23.89736,-3.07558 35.70712,-5.40957 42.77403,-6.20215 125.38852,-28.55848 123.28152,-75.27258 -1.5646,-22.01836 -13.50108,-43.36562 -27.71753,-57.40081 C 980.3009,765.3408 958.8141,751.64905 932.39783,741.30568 601.02449,626.50211 720.3725,499.99043 1024.8439,474.05361 c 16.8923,-1.44794 33.8502,-1.9885 50.7754,-2.98275 15.8962,-0.0585 31.7981,-0.6058 47.6885,-0.17548 26.9609,0.73012 56.3416,3.29717 83.0531,7.59922 21.5594,3.47226 42.6626,8.21963 63.2079,15.69113 8.1169,2.95178 15.8294,6.91491 23.7441,10.37236 l -21.0782,13.99317 0,0 c -7.629,-3.53156 -15.0475,-7.55899 -22.8871,-10.59468 -43.8661,-16.9861 -96.3857,-23.10045 -143.0483,-24.70166 -15.6969,-0.53863 -31.4121,-0.066 -47.1182,-0.099 -16.7436,0.90421 0,0 -50.2308,1.70248 -112.70233,-8.74556 -380.05661,106.72298 -180.74525,200.18436 56.90059,28.33134 84.70229,33.38305 139.41137,59.9478 11.0234,5.35256 20.39707,13.58751 30.59561,20.38127 13.72377,12.42373 24.61317,20.39819 31.87987,37.43608 6.1028,14.30924 8.358,28.13259 -1.9635,41.16852 -3.5818,4.5238 -8.204,8.11602 -12.3061,12.17403 -36.25958,26.2667 -37.93822,24.92241 -60.06437,35.34762 -37.98662,17.89821 -78.87578,28.33855 -120.62729,32.34812 -36.35067,1.73081 -42.9029,2.96803 -80.08655,0.81137 -15.28979,-0.88681 -30.5391,-2.42007 -45.7677,-4.04912 C 652.03788,914.4855 595.22042,905.00618 538.46856,895.52114 403.44127,871.19728 268.82732,844.22738 132.95745,824.88475 112.53806,822.3399 92.155769,819.47731 71.699287,817.2502 -1.650276,809.26459 -75.709604,805.08004 -149.35406,811.51995 c -21.71313,2.08135 -43.97755,3.37051 -65.09424,9.14688 z"
       inkscape:connector-curvature="0"
       sodipodi:nodetypes="ccscscsscccccccssscccsscccscsscscssccsccc" />
  </g>
</svg>
